<?xml version="1.0" encoding="UTF-8"?>
<svg id="Layer_2" xmlns="http://www.w3.org/2000/svg" xmlns:xlink="http://www.w3.org/1999/xlink" viewBox="0 0 54.17 57.18">
  <defs>
    <style>
      .cls-1 {
        fill: #044725;
      }

      .cls-2, .cls-3 {
        fill: #fff;
        stroke: #f7941d;
        stroke-miterlimit: 10;
        stroke-width: .25px;
      }

      .cls-4 {
        fill: url(#radial-gradient);
      }

      .cls-3 {
        font-family: EVERGLADERegular, EVERGLADE;
        font-size: 44.59px;
      }
    </style>
    <radialGradient id="radial-gradient" cx="94.02" cy="28.83" fx="94.02" fy="28.83" r="119.36" gradientTransform="translate(0 19.31) scale(.29 .33)" gradientUnits="userSpaceOnUse">
      <stop offset="0" stop-color="#205945"/>
      <stop offset="1" stop-color="#2e7d5e"/>
    </radialGradient>
  </defs>
  <g id="Layer_1-2" data-name="Layer_1">
    <g>
      <polygon class="cls-4" points="53.68 53.91 54.17 57.18 .42 57.18 .42 57.17 0 57.17 0 .48 53.75 .48 53.75 .49 54.17 .49 53.68 3.42 53.62 3.75 53.56 4.11 53.41 5 53.38 5.2 52.88 8.13 52.83 8.47 52.68 9.33 52.33 11.43 52.08 12.88 52.08 12.9 51.76 14.81 51.63 15.57 51.53 16.15 51.35 17.24 51.28 17.62 50.96 19.52 50.92 19.75 50.61 21.64 50.48 22.38 49.92 25.68 49.91 25.77 49.87 25.99 49.85 26.14 49.69 27.08 49.65 27.31 50.09 30.19 50.15 30.61 50.16 30.7 50.69 34.15 51.08 36.75 51.18 37.44 51.4 38.87 51.67 40.62 51.9 42.16 52.47 45.91 52.58 46.68 52.59 46.73 52.97 49.2 53.18 50.62 53.25 51.05 53.3 51.38 53.68 53.91"/>
      <g>
        <polygon class="cls-1" points="53.41 51.85 .21 51.81 .21 47.49 52.75 47.53 53.13 50 53.34 51.42 53.41 51.85"/>
        <path class="cls-1" d="M51.83,41.42l-51.62-.02v-4.31c10.55,0,37.18.09,51.03.46l.11.69.22,1.43.26,1.75Z"/>
        <path class="cls-1" d="M50.25,30.99H.21v-4.32c10.21.01,35.58.06,49.8.27l-.16.94-.04.23.44,2.88Z"/>
        <path class="cls-1" d="M51.79,16.37l-.1.58-.18,1.09-.06.38-.32,1.9-.04.23-50.88.03v-4.33c10.7,0,37.79.01,51.58.12Z"/>
        <polygon class="cls-1" points="53.57 5.8 53.54 6 53.04 8.93 52.99 9.27 52.85 10.13 .21 10.18 .21 5.85 53.57 5.8"/>
      </g>
      <text class="cls-3" transform="translate(11.34 38.01)"><tspan x="0" y="0">TT</tspan></text>
      <path class="cls-2" d="M12.01,42.48c7.75,16.74,19.97,17.26,27.73,0H12.01Z"/>
    </g>
  </g>
</svg>