<?xml version="1.0" encoding="UTF-8"?>
<svg id="Layer_2" xmlns="http://www.w3.org/2000/svg" xmlns:xlink="http://www.w3.org/1999/xlink" viewBox="0 0 188.05 56.7">
  <defs>
    <style>
      .cls-1 {
        fill: #044725;
      }

      .cls-2 {
        filter: url(#drop-shadow-1);
      }

      .cls-3 {
        filter: url(#drop-shadow-2);
      }

      .cls-4 {
        stroke: #f7941d;
        stroke-miterlimit: 10;
        stroke-width: .25px;
      }

      .cls-4, .cls-5 {
        fill: #fff;
      }

      .cls-6 {
        fill: url(#radial-gradient);
      }

      .cls-7 {
        fill: #f7941d;
      }
    </style>
    <radialGradient id="radial-gradient" cx="94.02" cy="28.35" fx="94.02" fy="28.35" r="119.36" gradientTransform="translate(0 18.99) scale(1 .33)" gradientUnits="userSpaceOnUse">
      <stop offset="0" stop-color="#205945"/>
      <stop offset="1" stop-color="#2e7d5e"/>
    </radialGradient>
    <filter id="drop-shadow-1" filterUnits="userSpaceOnUse">
      <feOffset dx="0" dy="5"/>
      <feGaussianBlur result="blur" stdDeviation="5"/>
      <feFlood flood-color="#000" flood-opacity=".56"/>
      <feComposite in2="blur" operator="in"/>
      <feComposite in="SourceGraphic"/>
    </filter>
    <filter id="drop-shadow-2" filterUnits="userSpaceOnUse">
      <feOffset dx="0" dy="5"/>
      <feGaussianBlur result="blur-2" stdDeviation="4"/>
      <feFlood flood-color="#000" flood-opacity=".56"/>
      <feComposite in2="blur-2" operator="in"/>
      <feComposite in="SourceGraphic"/>
    </filter>
  </defs>
  <g id="Layer_1-2" data-name="Layer_1">
    <polygon class="cls-6" points="186.34 53.43 188.05 56.7 1.47 56.7 1.47 56.69 0 56.69 0 0 186.57 0 186.57 0 188.05 0 186.34 2.94 186.13 3.27 185.93 3.63 185.41 4.52 185.29 4.72 183.57 7.65 183.38 7.99 182.88 8.85 181.65 10.95 180.8 12.4 180.79 12.42 179.67 14.33 179.22 15.09 178.88 15.67 178.24 16.76 178.02 17.14 176.9 19.04 176.77 19.27 175.67 21.16 175.24 21.9 173.3 25.2 173.25 25.29 173.12 25.51 173.03 25.66 172.49 26.6 172.35 26.83 173.87 29.71 174.09 30.13 174.13 30.22 175.95 33.67 177.31 36.27 177.68 36.96 178.43 38.39 179.35 40.14 180.16 41.68 182.13 45.43 182.53 46.2 182.56 46.25 183.86 48.72 184.61 50.14 184.84 50.57 185.01 50.9 186.34 53.43"/>
    <g>
      <polygon class="cls-1" points="184.84 50.57 0 50.53 0 46.21 182.56 46.25 183.86 48.72 184.61 50.14 184.84 50.57"/>
      <path class="cls-1" d="M179.35,40.14l-179.35-.02v-4.31c36.67,0,129.18.09,177.31.46l.37.69.75,1.43.92,1.75Z"/>
      <path class="cls-1" d="M173.87,29.71H0v-4.32c35.46.01,123.61.06,173.03.27l-.54.94-.14.23,1.52,2.88Z"/>
      <path class="cls-1" d="M179.22,15.09l-.34.58-.64,1.09-.22.38-1.12,1.9-.13.23-176.77.03v-4.33c37.19,0,131.3.01,179.22.12Z"/>
      <polygon class="cls-1" points="185.41 4.52 185.29 4.72 183.57 7.65 183.38 7.99 182.88 8.85 0 8.9 0 4.57 185.41 4.52"/>
    </g>
    <g class="cls-2">
      <g>
        <path class="cls-5" d="M12.19,27.94c-.31,0-.55-.25-.55-.55V8.88c0-.17-.14-.3-.3-.3h-1.53c-.31,0-.55-.25-.55-.55v-1.14c0-.31.25-.55.55-.55h5.86c.31,0,.55.25.55.55v1.14c0,.31-.25.55-.55.55h-1.53c-.17,0-.3.14-.3.3v18.5c0,.31-.25.55-.55.55h-1.09Z"/>
        <path class="cls-7" d="M15.66,6.45c.24,0,.43.19.43.43v1.14c0,.24-.19.43-.43.43h-1.53c-.24,0-.43.19-.43.43v18.5c0,.24-.19.43-.43.43h-1.09c-.24,0-.43-.19-.43-.43V8.88c0-.24-.19-.43-.43-.43h-1.53c-.24,0-.43-.19-.43-.43v-1.14c0-.24.19-.43.43-.43h5.86M15.66,6.2h-5.86c-.37,0-.68.3-.68.68v1.14c0,.37.3.68.68.68h1.53c.1,0,.18.08.18.18v18.5c0,.37.3.68.68.68h1.09c.37,0,.68-.3.68-.68V8.88c0-.1.08-.18.18-.18h1.53c.37,0,.68-.3.68-.68v-1.14c0-.37-.3-.68-.68-.68h0Z"/>
      </g>
      <g>
        <path class="cls-5" d="M25.52,27.94c-.28,0-.51-.21-.55-.48l-.37-2.83c-.02-.15-.15-.26-.3-.26h-2.44c-.15,0-.28.11-.3.26l-.37,2.83c-.04.27-.27.48-.55.48h-1.05c-.16,0-.31-.07-.42-.19-.1-.12-.15-.28-.13-.44l2.81-20.5c.04-.27.27-.48.55-.48h1.56c.28,0,.51.21.55.48l2.67,20.5c.02.16-.03.32-.13.44-.11.12-.26.19-.42.19h-1.11ZM23.11,14c-.08,0-.18.04-.19.17-.12.95-.24,1.89-.36,2.82l-.65,4.95c-.01.09.02.18.07.24.06.07.14.1.23.1h1.75c.09,0,.17-.04.23-.1.06-.07.09-.15.08-.24-.21-1.67-.41-3.32-.62-4.95-.12-.93-.23-1.87-.34-2.82-.02-.13-.11-.17-.19-.17Z"/>
        <path class="cls-7" d="M23.96,6.45c.22,0,.4.16.43.37l2.67,20.5c.03.26-.17.49-.43.49h-1.11c-.22,0-.4-.16-.43-.37l-.37-2.83c-.03-.21-.21-.37-.43-.37h-2.44c-.22,0-.4.16-.43.37l-.37,2.83c-.03.21-.21.37-.43.37h-1.05c-.26,0-.46-.23-.43-.49l2.81-20.5c.03-.21.21-.37.43-.37h1.56M22.21,22.42h1.75c.26,0,.46-.23.43-.48-.21-1.67-.41-3.32-.62-4.95-.12-.93-.23-1.87-.34-2.82-.02-.19-.17-.28-.32-.28s-.29.09-.32.28c-.12.95-.24,1.89-.36,2.82-.21,1.63-.43,3.28-.65,4.95-.03.26.17.49.43.49M23.96,6.2h-1.56c-.34,0-.63.25-.67.59l-2.81,20.5c-.03.19.03.39.16.54.13.15.32.23.51.23h1.05c.34,0,.63-.25.67-.59l.37-2.83c.01-.09.09-.16.18-.16h2.44c.09,0,.17.07.18.16l.37,2.83c.04.34.33.59.67.59h1.11c.2,0,.38-.08.51-.23.13-.15.19-.34.16-.54l-2.67-20.5c-.04-.34-.33-.59-.67-.59h0ZM22.21,22.17c-.07,0-.11-.04-.13-.06-.02-.02-.05-.07-.04-.14.22-1.67.44-3.32.65-4.95.12-.93.24-1.87.36-2.82,0-.02,0-.06.07-.06s.07.05.07.06c.11.95.23,1.89.34,2.82.2,1.63.41,3.28.62,4.95,0,.07-.02.12-.04.14-.02.02-.06.06-.13.06h-1.75Z"/>
      </g>
      <g>
        <path class="cls-5" d="M30.54,27.94c-.31,0-.55-.25-.55-.55V6.88c0-.31.25-.55.55-.55h1.11c.31,0,.55.25.55.55v18.56c0,.17.14.3.3.3h2.96c.31,0,.55.25.55.55v1.09c0,.31-.25.55-.55.55h-4.93Z"/>
        <path class="cls-7" d="M31.65,6.45c.24,0,.43.19.43.43v18.56c0,.24.19.43.43.43h2.96c.24,0,.43.19.43.43v1.09c0,.24-.19.43-.43.43h-4.93c-.24,0-.43-.19-.43-.43V6.88c0-.24.19-.43.43-.43h1.11M31.65,6.2h-1.11c-.37,0-.68.3-.68.68v20.5c0,.37.3.68.68.68h4.93c.37,0,.68-.3.68-.68v-1.09c0-.37-.3-.68-.68-.68h-2.96c-.1,0-.18-.08-.18-.18V6.88c0-.37-.3-.68-.68-.68h0Z"/>
      </g>
      <g>
        <path class="cls-5" d="M39.38,27.94c-.31,0-.55-.25-.55-.55V6.88c0-.31.25-.55.55-.55h1.11c.31,0,.55.25.55.55v18.56c0,.17.14.3.3.3h2.96c.31,0,.55.25.55.55v1.09c0,.31-.25.55-.55.55h-4.93Z"/>
        <path class="cls-7" d="M40.49,6.45c.24,0,.43.19.43.43v18.56c0,.24.19.43.43.43h2.96c.24,0,.43.19.43.43v1.09c0,.24-.19.43-.43.43h-4.93c-.24,0-.43-.19-.43-.43V6.88c0-.24.19-.43.43-.43h1.11M40.49,6.2h-1.11c-.37,0-.68.3-.68.68v20.5c0,.37.3.68.68.68h4.93c.37,0,.68-.3.68-.68v-1.09c0-.37-.3-.68-.68-.68h-2.96c-.1,0-.18-.08-.18-.18V6.88c0-.37-.3-.68-.68-.68h0Z"/>
      </g>
      <g>
        <path class="cls-5" d="M48.22,27.94c-.31,0-.55-.25-.55-.55V6.88c0-.31.25-.55.55-.55h4.8c.31,0,.55.25.55.55v1.14c0,.31-.25.55-.55.55h-2.83c-.17,0-.3.14-.3.3v6.64c0,.17.14.3.3.3h1.74c.31,0,.55.25.55.55v1.11c0,.31-.25.55-.55.55h-1.74c-.17,0-.3.14-.3.3v7.08c0,.17.14.3.3.3h2.96c.31,0,.55.25.55.55v1.09c0,.31-.25.55-.55.55h-4.93Z"/>
        <path class="cls-7" d="M53.02,6.45c.24,0,.43.19.43.43v1.14c0,.24-.19.43-.43.43h-2.83c-.24,0-.43.19-.43.43v6.64c0,.24.19.43.43.43h1.74c.24,0,.43.19.43.43v1.11c0,.24-.19.43-.43.43h-1.74c-.24,0-.43.19-.43.43v7.08c0,.24.19.43.43.43h2.96c.24,0,.43.19.43.43v1.09c0,.24-.19.43-.43.43h-4.93c-.24,0-.43-.19-.43-.43V6.88c0-.24.19-.43.43-.43h4.8M53.02,6.2h-4.8c-.37,0-.68.3-.68.68v20.5c0,.37.3.68.68.68h4.93c.37,0,.68-.3.68-.68v-1.09c0-.37-.3-.68-.68-.68h-2.96c-.1,0-.18-.08-.18-.18v-7.08c0-.1.08-.18.18-.18h1.74c.37,0,.68-.3.68-.68v-1.11c0-.37-.3-.68-.68-.68h-1.74c-.1,0-.18-.08-.18-.18v-6.64c0-.1.08-.18.18-.18h2.83c.37,0,.68-.3.68-.68v-1.14c0-.37-.3-.68-.68-.68h0Z"/>
      </g>
      <g>
        <path class="cls-5" d="M59.95,28.17c-1.19,0-2.08-.32-2.62-.95-.55-.63-.82-1.54-.82-2.7v-4.11c0-.31.25-.55.55-.55h1.04c.31,0,.55.25.55.55v3.83c0,.53.09.96.28,1.29.18.31.49.46.97.46s.79-.12.98-.36c.2-.25.3-.62.3-1.1v-3.04c0-.32,0-.59-.03-.79-.02-.2-.05-.37-.1-.52-.05-.14-.11-.28-.19-.4-.08-.13-.19-.27-.31-.42-.25-.31-.51-.59-.77-.86-.26-.27-.53-.53-.8-.8-.28-.27-.56-.56-.85-.86-.29-.3-.59-.65-.9-1.03-.36-.41-.57-.85-.64-1.29-.06-.43-.09-.95-.09-1.56v-3.19c0-2.43,1.16-3.66,3.45-3.66,1.23,0,2.11.31,2.61.91.5.6.76,1.52.76,2.74v3.46c0,.31-.25.55-.55.55h-.98c-.31,0-.55-.25-.55-.55v-3.2c0-.51-.09-.93-.26-1.24-.16-.29-.48-.43-.97-.43-.84,0-1.25.46-1.25,1.41v3.17c0,.44.03.76.09.95.06.19.17.4.35.63.51.65,1.04,1.23,1.58,1.73.55.5,1.1,1.09,1.66,1.75.19.23.36.46.48.7.13.24.23.49.3.75.07.27.12.57.15.9.03.33.04.71.04,1.13v3.06c0,1.17-.27,2.08-.79,2.7-.53.63-1.42.95-2.65.95Z"/>
        <path class="cls-7" d="M59.95,6.22c1.19,0,2.03.29,2.52.87.48.58.73,1.47.73,2.66v3.46c0,.24-.19.43-.43.43h-.98c-.24,0-.43-.19-.43-.43v-3.2c0-.54-.09-.97-.27-1.3-.18-.33-.54-.49-1.08-.49-.92,0-1.38.51-1.38,1.53v3.17c0,.45.03.78.09.99.06.21.19.43.38.67.52.66,1.05,1.24,1.6,1.74.55.5,1.09,1.08,1.65,1.74.19.22.35.45.47.67.12.23.22.47.29.73.07.26.12.55.14.88.03.33.04.7.04,1.12v3.06c0,1.14-.26,2.02-.77,2.62-.51.61-1.36.91-2.56.91s-2-.3-2.53-.91c-.53-.61-.79-1.48-.79-2.62v-4.11c0-.24.19-.43.43-.43h1.04c.24,0,.43.19.43.43v3.83c0,.55.1,1,.3,1.35.2.35.56.52,1.08.52s.86-.13,1.08-.4c.22-.27.32-.66.32-1.18v-3.04c0-.33,0-.6-.03-.8-.02-.21-.05-.39-.1-.54-.05-.16-.12-.3-.21-.43-.09-.13-.19-.27-.31-.43-.26-.31-.52-.6-.78-.87-.26-.27-.53-.54-.8-.81-.28-.27-.56-.55-.84-.86-.29-.3-.58-.64-.9-1.02-.35-.4-.55-.81-.61-1.23-.06-.42-.09-.94-.09-1.54v-3.19c0-2.35,1.11-3.53,3.32-3.53M59.95,5.97c-2.37,0-3.57,1.27-3.57,3.78v3.19c0,.62.03,1.15.09,1.58.07.47.29.93.67,1.36.31.38.61.73.9,1.03.29.31.57.59.85.86.27.27.54.53.8.8.26.27.52.55.77.86.11.14.21.28.3.41.07.11.13.23.18.37.04.13.08.3.09.49.02.2.02.46.02.78v3.04c0,.46-.09.8-.27,1.02-.17.21-.46.31-.88.31s-.71-.13-.86-.39c-.18-.31-.27-.72-.27-1.23v-3.83c0-.37-.3-.68-.68-.68h-1.04c-.37,0-.68.3-.68.68v4.11c0,1.2.29,2.14.85,2.79.57.66,1.49.99,2.72.99s2.19-.34,2.75-1c.55-.65.82-1.58.82-2.78v-3.06c0-.42-.01-.8-.04-1.14-.03-.34-.08-.65-.15-.93-.07-.27-.18-.54-.31-.78-.13-.24-.3-.48-.5-.72-.56-.66-1.12-1.25-1.67-1.76-.53-.49-1.06-1.07-1.57-1.71-.17-.22-.28-.41-.33-.59-.05-.18-.08-.49-.08-.92v-3.17c0-.89.35-1.28,1.13-1.28.44,0,.72.12.86.36.16.29.24.69.24,1.18v3.2c0,.37.3.68.68.68h.98c.37,0,.68-.3.68-.68v-3.46c0-1.25-.26-2.2-.78-2.82-.53-.64-1.44-.96-2.71-.96h0Z"/>
      </g>
      <g>
        <path class="cls-5" d="M69.14,27.94c-.31,0-.55-.25-.55-.55V8.88c0-.17-.14-.3-.3-.3h-1.53c-.31,0-.55-.25-.55-.55v-1.14c0-.31.25-.55.55-.55h5.86c.31,0,.55.25.55.55v1.14c0,.31-.25.55-.55.55h-1.53c-.17,0-.3.14-.3.3v18.5c0,.31-.25.55-.55.55h-1.09Z"/>
        <path class="cls-7" d="M72.61,6.45c.24,0,.43.19.43.43v1.14c0,.24-.19.43-.43.43h-1.53c-.24,0-.43.19-.43.43v18.5c0,.24-.19.43-.43.43h-1.09c-.24,0-.43-.19-.43-.43V8.88c0-.24-.19-.43-.43-.43h-1.53c-.24,0-.43-.19-.43-.43v-1.14c0-.24.19-.43.43-.43h5.86M72.61,6.2h-5.86c-.37,0-.68.3-.68.68v1.14c0,.37.3.68.68.68h1.53c.1,0,.18.08.18.18v18.5c0,.37.3.68.68.68h1.09c.37,0,.68-.3.68-.68V8.88c0-.1.08-.18.18-.18h1.53c.37,0,.68-.3.68-.68v-1.14c0-.37-.3-.68-.68-.68h0Z"/>
      </g>
      <g>
        <path class="cls-5" d="M83.97,27.94c-.31,0-.55-.25-.55-.55V8.88c0-.17-.14-.3-.3-.3h-1.53c-.31,0-.55-.25-.55-.55v-1.14c0-.31.25-.55.55-.55h5.86c.31,0,.55.25.55.55v1.14c0,.31-.25.55-.55.55h-1.53c-.17,0-.3.14-.3.3v18.5c0,.31-.25.55-.55.55h-1.09Z"/>
        <path class="cls-7" d="M87.45,6.45c.24,0,.43.19.43.43v1.14c0,.24-.19.43-.43.43h-1.53c-.24,0-.43.19-.43.43v18.5c0,.24-.19.43-.43.43h-1.09c-.24,0-.43-.19-.43-.43V8.88c0-.24-.19-.43-.43-.43h-1.53c-.24,0-.43-.19-.43-.43v-1.14c0-.24.19-.43.43-.43h5.86M87.45,6.2h-5.86c-.37,0-.68.3-.68.68v1.14c0,.37.3.68.68.68h1.53c.1,0,.18.08.18.18v18.5c0,.37.3.68.68.68h1.09c.37,0,.68-.3.68-.68V8.88c0-.1.08-.18.18-.18h1.53c.37,0,.68-.3.68-.68v-1.14c0-.37-.3-.68-.68-.68h0Z"/>
      </g>
      <g>
        <path class="cls-5" d="M94.29,28.17c-2.3,0-3.47-1.26-3.47-3.76v-14.56c0-2.49,1.17-3.76,3.47-3.76s3.5,1.26,3.5,3.76v14.56c0,2.49-1.18,3.76-3.5,3.76ZM94.29,8.34c-.84,0-1.25.49-1.25,1.51v14.56c0,1.05.41,1.56,1.25,1.56s1.28-.51,1.28-1.56v-14.56c0-1.02-.42-1.51-1.28-1.51Z"/>
        <path class="cls-7" d="M94.29,6.22c2.25,0,3.37,1.21,3.37,3.63v14.56c0,2.42-1.12,3.63-3.37,3.63s-3.35-1.21-3.35-3.63v-14.56c0-2.42,1.12-3.63,3.35-3.63M94.29,26.1c.93,0,1.4-.56,1.4-1.69v-14.56c0-1.09-.47-1.64-1.4-1.64s-1.38.55-1.38,1.64v14.56c0,1.13.46,1.69,1.38,1.69M94.29,5.97c-2.39,0-3.6,1.31-3.6,3.88v14.56c0,2.58,1.21,3.88,3.6,3.88s3.62-1.31,3.62-3.88v-14.56c0-2.58-1.22-3.88-3.62-3.88h0ZM94.29,25.85c-.52,0-1.13-.16-1.13-1.44v-14.56c0-1.23.6-1.39,1.13-1.39s1.15.16,1.15,1.39v14.56c0,1.27-.62,1.44-1.15,1.44h0Z"/>
      </g>
      <g>
        <path class="cls-5" d="M104.08,28.17c-2.3,0-3.47-1.26-3.47-3.76V6.88c0-.31.25-.55.55-.55h1.11c.31,0,.55.25.55.55v17.53c0,1.05.41,1.56,1.25,1.56s1.25-.51,1.25-1.56V6.88c0-.31.25-.55.55-.55h1.11c.31,0,.55.25.55.55v17.53c0,2.49-1.17,3.76-3.47,3.76Z"/>
        <path class="cls-7" d="M107,6.45c.24,0,.43.19.43.43v17.53c0,2.42-1.12,3.63-3.35,3.63s-3.35-1.21-3.35-3.63V6.88c0-.24.19-.43.43-.43h1.11c.24,0,.43.19.43.43v17.53c0,1.12.46,1.69,1.38,1.69s1.38-.56,1.38-1.69V6.88c0-.24.19-.43.43-.43h1.11M107,6.2h-1.11c-.37,0-.68.3-.68.68v17.53c0,1.27-.6,1.44-1.13,1.44s-1.13-.16-1.13-1.44V6.88c0-.37-.3-.68-.68-.68h-1.11c-.37,0-.68.3-.68.68v17.53c0,2.58,1.21,3.88,3.6,3.88s3.6-1.31,3.6-3.88V6.88c0-.37-.3-.68-.68-.68h0Z"/>
      </g>
      <g>
        <path class="cls-5" d="M115.87,27.94c-.28,0-.51-.21-.55-.48-.21-1.55-.43-3.05-.65-4.52-.24-1.54-.5-3.11-.78-4.69-.05,0-.09,0-.13,0h-.87c-.17,0-.3.14-.3.3v8.82c0,.31-.25.55-.55.55h-1.11c-.31,0-.55-.25-.55-.55V6.88c0-.31.25-.55.55-.55h2.81c1.27,0,2.24.3,2.88.9.64.6.96,1.63.96,3.06v4.26c0,1.47-.47,2.51-1.39,3.1-.11.07-.16.19-.14.3.32,1.63.63,3.24.9,4.82.26,1.51.52,3.01.75,4.53.03.16-.02.32-.13.45-.11.12-.26.19-.42.19h-1.28ZM112.89,8.58c-.17,0-.3.14-.3.3v7.03c0,.17.14.3.3.3h.87c.57,0,.97-.13,1.21-.39.24-.26.36-.68.36-1.25v-4.02c0-.75-.11-1.27-.31-1.56-.2-.28-.63-.42-1.27-.42h-.84Z"/>
        <path class="cls-7" d="M113.73,6.45c1.25,0,2.18.29,2.79.87.61.58.92,1.57.92,2.97v4.26c0,1.43-.44,2.43-1.33,3-.15.09-.23.26-.2.43.32,1.63.62,3.24.9,4.81.26,1.5.52,3.01.75,4.52.04.26-.16.5-.43.5h-1.28c-.21,0-.4-.16-.42-.37-.21-1.55-.43-3.05-.65-4.52-.24-1.58-.51-3.19-.8-4.82-.09.02-.16.03-.23.03h-.87c-.24,0-.43.19-.43.43v8.82c0,.24-.19.43-.43.43h-1.11c-.24,0-.43-.19-.43-.43V6.88c0-.24.19-.43.43-.43h2.81M112.89,16.34h.87c.61,0,1.04-.14,1.3-.43.26-.29.39-.73.39-1.34v-4.02c0-.78-.11-1.32-.34-1.63-.22-.31-.68-.47-1.38-.47h-.84c-.24,0-.43.19-.43.43v7.03c0,.24.19.43.43.43M113.73,6.2h-2.81c-.37,0-.68.3-.68.68v20.5c0,.37.3.68.68.68h1.11c.37,0,.68-.3.68-.68v-8.82c0-.1.08-.18.18-.18h.87s.02,0,.03,0c.27,1.52.53,3.06.76,4.58.22,1.46.44,2.98.65,4.51.05.34.33.59.67.59h1.28c.2,0,.39-.09.52-.24.13-.15.19-.35.16-.55-.24-1.51-.49-3.03-.75-4.53-.28-1.6-.59-3.22-.9-4.82-.01-.06.02-.13.09-.17.96-.62,1.45-1.7,1.45-3.21v-4.26c0-1.47-.34-2.53-1-3.15-.66-.62-1.66-.94-2.96-.94h0ZM112.89,16.09c-.1,0-.18-.08-.18-.18v-7.03c0-.1.08-.18.18-.18h.84c.6,0,1,.12,1.17.36.13.18.29.59.29,1.49v4.02c0,.54-.11.93-.32,1.17-.21.23-.58.35-1.11.35h-.87Z"/>
      </g>
      <g>
        <path class="cls-5" d="M123.86,28.17c-.48,0-.92-.06-1.32-.19-.41-.13-.77-.34-1.06-.64-.3-.3-.54-.69-.7-1.18-.17-.48-.25-1.07-.25-1.75v-14.54c0-1.22.29-2.17.86-2.81.58-.65,1.46-.98,2.64-.98s2.04.33,2.58.98c.53.64.79,1.59.79,2.8v3.33c0,.31-.25.55-.55.55h-.91c-.31,0-.55-.25-.55-.55v-3.33c0-.52-.1-.91-.31-1.17-.2-.24-.55-.37-1.05-.37-.46,0-.79.12-.98.37-.2.25-.3.65-.3,1.17v14.54c0,.52.12.91.36,1.17.24.26.53.39.89.39.87,0,1.33-.46,1.41-1.42v-4.41c0-.17-.14-.3-.31-.3h-.78c-.31,0-.55-.25-.55-.55v-1.01c0-.31.25-.55.55-.55h2.67c.31,0,.55.25.55.55v9.11c0,.31-.25.55-.55.55h-.14c-.31,0-.55-.25-.55-.55l-.18-.12.08.09c-.2.2-.43.36-.7.48-.48.22-1.03.34-1.64.34Z"/>
        <path class="cls-7" d="M124.01,6.22c1.14,0,1.97.31,2.48.93.51.62.77,1.53.77,2.73v3.33c0,.24-.19.43-.43.43h-.91c-.24,0-.43-.19-.43-.43v-3.33c0-.55-.11-.97-.34-1.25-.23-.28-.61-.42-1.14-.42-.5,0-.86.14-1.08.42-.22.28-.32.69-.32,1.25v14.54c0,.55.13.97.39,1.26.26.29.59.43.99.43.93,0,1.44-.51,1.53-1.53v-4.42c0-.24-.19-.43-.43-.43h-.78c-.24,0-.43-.19-.43-.43v-1.01c0-.24.19-.43.43-.43h2.67c.24,0,.43.19.43.43v9.11c0,.24-.19.43-.43.43h-.14c-.24,0-.43-.19-.43-.43,0-.1-.09-.17-.18-.17-.04,0-.09.01-.12.05,0,0-.01.01-.02.02-.18.18-.4.33-.65.45-.47.22-1,.32-1.58.32-.47,0-.9-.06-1.28-.18-.39-.12-.73-.32-1.01-.61-.29-.29-.51-.66-.67-1.13-.16-.47-.25-1.04-.25-1.71v-14.54c0-1.19.28-2.1.83-2.73.55-.62,1.4-.93,2.54-.93M124.01,5.97c-1.21,0-2.13.34-2.73,1.02-.59.67-.89,1.64-.89,2.89v14.54c0,.7.09,1.31.26,1.8.18.5.42.91.73,1.22.31.31.69.54,1.12.67.41.13.87.19,1.36.19.62,0,1.19-.12,1.69-.35.24-.11.46-.25.64-.41.06.3.34.53.66.53h.14c.37,0,.68-.3.68-.68v-9.11c0-.37-.3-.68-.68-.68h-2.67c-.37,0-.68.3-.68.68v1.01c0,.37.3.68.68.68h.78c.1,0,.18.08.18.18v4.42c-.07.87-.48,1.28-1.28,1.28-.33,0-.59-.11-.8-.35-.22-.24-.32-.6-.32-1.09v-14.54c0-.49.09-.86.27-1.09.17-.21.46-.32.88-.32.45,0,.77.11.95.32.19.23.28.6.28,1.09v3.33c0,.37.3.68.68.68h.91c.37,0,.68-.3.68-.68v-3.33c0-1.25-.28-2.22-.82-2.88-.56-.68-1.46-1.03-2.67-1.03h0Z"/>
      </g>
      <g>
        <path class="cls-5" d="M133.84,28.17c-2.3,0-3.47-1.26-3.47-3.76V6.88c0-.31.25-.55.55-.55h1.11c.31,0,.55.25.55.55v17.53c0,1.05.41,1.56,1.25,1.56s1.25-.51,1.25-1.56V6.88c0-.31.25-.55.55-.55h1.11c.31,0,.55.25.55.55v17.53c0,2.49-1.17,3.76-3.47,3.76Z"/>
        <path class="cls-7" d="M136.76,6.45c.24,0,.43.19.43.43v17.53c0,2.42-1.12,3.63-3.35,3.63s-3.35-1.21-3.35-3.63V6.88c0-.24.19-.43.43-.43h1.11c.24,0,.43.19.43.43v17.53c0,1.12.46,1.69,1.38,1.69s1.38-.56,1.38-1.69V6.88c0-.24.19-.43.43-.43h1.11M136.76,6.2h-1.11c-.37,0-.68.3-.68.68v17.53c0,1.27-.6,1.44-1.13,1.44s-1.13-.16-1.13-1.44V6.88c0-.37-.3-.68-.68-.68h-1.11c-.37,0-.68.3-.68.68v17.53c0,2.58,1.21,3.88,3.6,3.88s3.6-1.31,3.6-3.88V6.88c0-.37-.3-.68-.68-.68h0Z"/>
      </g>
      <g>
        <path class="cls-5" d="M140.67,6.33h1.11c.31,0,.55.25.55.55v20.5c0,.31-.25.55-.55.55h-1.11c-.31,0-.55-.25-.55-.55V6.88c0-.31.25-.55.55-.55Z"/>
        <path class="cls-7" d="M141.79,6.45c.24,0,.43.19.43.43v20.5c0,.24-.19.43-.43.43h-1.11c-.24,0-.43-.19-.43-.43V6.88c0-.24.19-.43.43-.43h1.11M141.79,6.2h-1.11c-.37,0-.68.3-.68.68v20.5c0,.37.3.68.68.68h1.11c.37,0,.68-.3.68-.68V6.88c0-.37-.3-.68-.68-.68h0Z"/>
      </g>
      <g>
        <path class="cls-5" d="M145.72,27.94c-.31,0-.55-.25-.55-.55V6.88c0-.31.25-.55.55-.55h2.89c1.17,0,2.06.34,2.64,1.02.57.67.86,1.6.86,2.77v14.07c0,2.49-1.18,3.76-3.5,3.76h-2.89ZM147.69,8.58c-.17,0-.3.14-.3.3v16.56c0,.17.14.3.3.3h.92c.86,0,1.28-.51,1.28-1.56v-14.04c0-.5-.11-.9-.32-1.17-.21-.27-.52-.39-.95-.39h-.92Z"/>
        <path class="cls-7" d="M148.61,6.45c1.14,0,1.99.32,2.54.97.55.65.83,1.54.83,2.69v14.07c0,2.42-1.13,3.63-3.37,3.63h-2.89c-.24,0-.43-.19-.43-.43V6.88c0-.24.19-.43.43-.43h2.89M147.69,25.87h.92c.93,0,1.4-.56,1.4-1.69v-14.04c0-.54-.12-.95-.35-1.25-.23-.29-.58-.44-1.05-.44h-.92c-.24,0-.43.19-.43.43v16.56c0,.24.19.43.43.43M148.61,6.2h-2.89c-.37,0-.68.3-.68.68v20.5c0,.37.3.68.68.68h2.89c2.4,0,3.62-1.31,3.62-3.88v-14.07c0-1.2-.3-2.16-.89-2.85-.6-.7-1.52-1.06-2.73-1.06h0ZM147.69,25.62c-.1,0-.18-.08-.18-.18V8.88c0-.1.08-.18.18-.18h.92c.39,0,.67.11.86.35.2.25.3.61.3,1.09v14.04c0,1.27-.62,1.44-1.15,1.44h-.92Z"/>
      </g>
      <g>
        <path class="cls-5" d="M155.48,27.94c-.31,0-.55-.25-.55-.55V6.88c0-.31.25-.55.55-.55h4.8c.31,0,.55.25.55.55v1.14c0,.31-.25.55-.55.55h-2.83c-.17,0-.3.14-.3.3v6.64c0,.17.14.3.3.3h1.74c.31,0,.55.25.55.55v1.11c0,.31-.25.55-.55.55h-1.74c-.17,0-.3.14-.3.3v7.08c0,.17.14.3.3.3h2.96c.31,0,.55.25.55.55v1.09c0,.31-.25.55-.55.55h-4.93Z"/>
        <path class="cls-7" d="M160.28,6.45c.24,0,.43.19.43.43v1.14c0,.24-.19.43-.43.43h-2.83c-.24,0-.43.19-.43.43v6.64c0,.24.19.43.43.43h1.74c.24,0,.43.19.43.43v1.11c0,.24-.19.43-.43.43h-1.74c-.24,0-.43.19-.43.43v7.08c0,.24.19.43.43.43h2.96c.24,0,.43.19.43.43v1.09c0,.24-.19.43-.43.43h-4.93c-.24,0-.43-.19-.43-.43V6.88c0-.24.19-.43.43-.43h4.8M160.28,6.2h-4.8c-.37,0-.68.3-.68.68v20.5c0,.37.3.68.68.68h4.93c.37,0,.68-.3.68-.68v-1.09c0-.37-.3-.68-.68-.68h-2.96c-.1,0-.18-.08-.18-.18v-7.08c0-.1.08-.18.18-.18h1.74c.37,0,.68-.3.68-.68v-1.11c0-.37-.3-.68-.68-.68h-1.74c-.1,0-.18-.08-.18-.18v-6.64c0-.1.08-.18.18-.18h2.83c.37,0,.68-.3.68-.68v-1.14c0-.37-.3-.68-.68-.68h0Z"/>
      </g>
    </g>
    <g class="cls-3">
      <path class="cls-4" d="M11.77,49.39c-.76-.36-1.35-.85-1.77-1.46-.42-.61-.63-1.27-.63-1.98s.16-1.3.48-1.85c.32-.55.79-.98,1.43-1.28-.46-.31-.79-.67-1-1.09-.21-.42-.31-.91-.31-1.48,0-.74.16-1.38.48-1.94s.78-.99,1.37-1.29c.59-.3,1.29-.46,2.09-.46s1.43.14,2.01.41c.58.27,1.03.67,1.37,1.17.33.51.53,1.1.58,1.79.01.12-.01.21-.08.27s-.16.1-.28.1h-1.93c-.11,0-.19-.03-.25-.08-.06-.06-.11-.14-.14-.26-.08-.27-.24-.48-.47-.63-.23-.15-.52-.22-.85-.22-.38,0-.68.1-.89.31-.21.21-.32.48-.32.82s.1.64.29.86c.19.23.56.43,1.09.6.22.08.32.23.29.44l-.23,1.43c-.01.11-.05.19-.11.25-.06.05-.15.09-.27.1-.51.06-.9.23-1.18.54-.28.3-.42.68-.42,1.13,0,.34.09.64.27.91.18.27.43.49.76.64.33.16.72.23,1.17.23s.83-.1,1.17-.31.61-.5.81-.89c.2-.38.3-.83.32-1.34l-.22-.05c-.2-.05-.35-.09-.45-.1-.23-.04-.41-.05-.54-.05-.23-.02-.33-.15-.31-.38l.23-1.48c.02-.24.14-.35.37-.33.31-.01.66.02,1.05.1.18.03.48.09.92.19.41.09.75.16,1.02.21.27.05.5.08.67.08.24,0,.45-.05.62-.16.17-.11.3-.28.41-.53.09-.19.2-.28.34-.28.02,0,.06,0,.12.02l1.75.44c.2.06.29.17.29.32,0,.02,0,.06-.02.12-.18.74-.52,1.33-1.02,1.78s-1.13.67-1.87.67c-.2,0-.44-.02-.75-.07-.04.93-.27,1.74-.68,2.43s-.97,1.23-1.69,1.6c-.71.37-1.53.56-2.46.56-.98,0-1.85-.18-2.61-.54Z"/>
      <path class="cls-4" d="M31.55,49.67h-2.23c-.24,0-.37-.12-.37-.37v-12.11c0-.24.12-.37.37-.37h8.02c.24,0,.37.12.37.37v1.95c0,.24-.12.37-.37.37h-5.43v3.09h4.09c.24,0,.37.12.37.37v1.8c0,.24-.12.37-.37.37h-4.09v4.18c0,.24-.12.37-.37.37Z"/>
      <path class="cls-4" d="M39.5,49.3v-12.11c0-.24.12-.37.37-.37h5.08c.88,0,1.65.18,2.33.55.68.37,1.2.87,1.58,1.53s.57,1.4.57,2.25-.18,1.54-.53,2.13-.84,1.07-1.47,1.43l2.25,4.53c.04.07.05.14.05.19,0,.07-.03.13-.09.17-.06.04-.14.06-.23.06h-2.56c-.2,0-.34-.09-.43-.27l-1.83-3.92c-.11,0-.27,0-.48,0h-1.65v3.82c0,.24-.12.37-.37.37h-2.23c-.24,0-.37-.12-.37-.37ZM45.58,42.69c.26-.16.47-.37.62-.64.15-.27.22-.57.22-.89,0-.36-.08-.67-.23-.93s-.36-.45-.62-.59c-.26-.13-.55-.2-.87-.2h-2.24v3.48h2.21c.33,0,.64-.08.9-.24Z"/>
      <path class="cls-4" d="M54.26,49.67h-2.23c-.24,0-.37-.12-.37-.37v-12.11c0-.24.12-.37.37-.37h2.23c.24,0,.37.12.37.37v12.11c0,.24-.12.37-.37.37Z"/>
      <path class="cls-4" d="M66.42,49.67h-8.66c-.24,0-.37-.12-.37-.37v-12.11c0-.24.12-.37.37-.37h8.54c.24,0,.37.12.37.37v1.96c0,.24-.12.37-.37.37h-5.94v2.31h4.57c.24,0,.37.12.37.37v1.81c0,.24-.12.37-.37.37h-4.57v2.6h6.07c.24,0,.37.12.37.37v1.97c0,.24-.12.37-.37.37Z"/>
      <path class="cls-4" d="M71.38,49.67h-2.16c-.24,0-.37-.12-.37-.37v-12.11c0-.24.12-.37.37-.37h2.43c.19,0,.34.08.44.24l5,7.59v-7.46c0-.24.12-.37.37-.37h2.16c.24,0,.37.12.37.37v12.11c0,.24-.12.37-.37.37h-2.17c-.19,0-.34-.08-.44-.24l-5.26-7.93v7.81c0,.24-.12.37-.37.37Z"/>
      <path class="cls-4" d="M82.74,49.3v-12.11c0-.24.12-.37.37-.37h4.39c1.24,0,2.37.28,3.4.84,1.03.56,1.84,1.33,2.44,2.31.6.98.9,2.07.9,3.26s-.3,2.28-.9,3.26c-.6.98-1.41,1.75-2.44,2.32-1.03.56-2.16.85-3.39.85h-4.41c-.24,0-.37-.12-.37-.37ZM89.47,46.37c.55-.3.98-.73,1.29-1.27s.47-1.16.47-1.86-.16-1.3-.47-1.84c-.31-.55-.75-.97-1.3-1.27-.55-.3-1.17-.46-1.86-.46h-1.9v7.16h1.92c.68,0,1.3-.15,1.85-.46Z"/>
      <path class="cls-4" d="M97.6,49.32c-.86-.37-1.61-.91-2.24-1.62-.07-.09-.11-.17-.11-.25,0-.09.05-.18.14-.27l1.41-1.35c.08-.08.16-.12.25-.12.1,0,.19.05.27.14.41.42.87.74,1.39.96.52.22,1.05.32,1.6.32.58,0,1.03-.11,1.35-.32s.47-.51.47-.89c0-.26-.07-.47-.21-.65-.14-.18-.39-.35-.74-.51s-.85-.33-1.5-.52c-1.06-.3-1.98-.77-2.76-1.39s-1.17-1.49-1.17-2.6c0-.66.17-1.27.51-1.83.34-.55.85-1,1.54-1.33.68-.33,1.51-.5,2.49-.5.83,0,1.62.15,2.38.44s1.44.7,2.03,1.2c.09.07.14.16.14.26,0,.09-.04.17-.11.26l-1.29,1.46c-.08.1-.17.15-.27.15-.08,0-.16-.03-.25-.1-.35-.27-.76-.5-1.21-.69-.45-.19-.9-.28-1.34-.28-.5,0-.89.08-1.17.25s-.42.41-.42.74c0,.26.08.47.25.64.16.17.38.31.65.43.27.12.68.27,1.22.44.02,0,.1.03.23.07.88.29,1.6.61,2.17.94.57.34,1.02.75,1.34,1.24.32.49.48,1.1.48,1.81,0,.81-.2,1.52-.59,2.13-.4.61-.95,1.08-1.67,1.41-.72.33-1.55.49-2.49.49s-1.89-.19-2.76-.56Z"/>
    </g>
    <g>
      <circle class="cls-4" cx="117.42" cy="43.23" r="2.26"/>
      <circle class="cls-4" cx="128.51" cy="43.23" r="2.26"/>
      <circle class="cls-4" cx="139.6" cy="43.23" r="2.26"/>
      <circle class="cls-4" cx="150.68" cy="43.23" r="2.26"/>
      <circle class="cls-4" cx="161.77" cy="43.23" r="2.26"/>
    </g>
  </g>
</svg>